<svg width="161.000000" height="291.000000" viewBox="0 0 161 291" fill="none" xmlns="http://www.w3.org/2000/svg" xmlns:xlink="http://www.w3.org/1999/xlink">
	<desc>
			Created with Pixso.
	</desc>
	<defs/>
	<g opacity="0.500000">
		<path id="Spiral 3" d="M103.03 0.5C46.4 0.5 0.5 15.01 0.5 32.92C0.5 50.82 46.4 65.34 103.03 65.34C134.77 65.34 160.5 59.19 160.5 51.61C160.5 44.03 134.77 37.89 103.03 37.89C46.4 37.89 0.5 52.4 0.5 70.31C0.5 88.22 46.4 102.73 103.03 102.73C134.77 102.73 160.5 96.59 160.5 89.01C160.5 81.43 134.77 75.28 103.03 75.28C46.4 75.28 0.5 89.89 0.5 107.9C0.5 125.92 46.4 140.52 103.03 140.52C134.77 140.52 160.5 134.38 160.5 126.8C160.5 119.22 134.77 113.08 103.03 113.08C46.4 113.08 0.5 127.59 0.5 145.5C0.5 163.4 46.4 177.92 103.03 177.92C134.77 177.92 160.5 171.77 160.5 164.19C160.5 156.61 134.77 150.47 103.03 150.47C46.4 150.47 0.5 164.98 0.5 182.89C0.5 200.8 46.4 215.31 103.03 215.31C134.77 215.31 160.5 209.17 160.5 201.59C160.5 194.01 134.77 187.86 103.03 187.86C46.4 187.86 0.5 202.38 0.5 220.28C0.5 238.19 46.4 252.7 103.03 252.7C134.77 252.7 160.5 246.56 160.5 238.98C160.5 231.4 134.77 225.26 103.03 225.26C46.4 225.26 0.5 239.86 0.5 257.87C0.5 275.89 46.4 290.5 103.03 290.5" stroke="#A1A6B4" stroke-opacity="1.000000" stroke-width="1.000000" stroke-linecap="round"/>
	</g>
</svg>
