<svg width="255.000244" height="255.000000" viewBox="0 0 255 255" fill="none" xmlns="http://www.w3.org/2000/svg" xmlns:xlink="http://www.w3.org/1999/xlink">
	<desc>
			Created with Pixso.
	</desc>
	<defs/>
	<g opacity="0.500000">
		<path id="Dawn" d="M127.52 127.37L176.29 9.7L127.57 127.39L217.65 37.34L127.6 127.42L245.29 78.7L127.62 127.47L255 127.5L127.62 127.52L245.29 176.29L127.6 127.57L217.65 217.65L127.57 127.6L176.29 245.29L127.52 127.62L127.5 255L127.47 127.62L78.7 245.29L127.42 127.6L37.34 217.65L127.39 127.57L9.7 176.29L127.37 127.52L0 127.5L127.37 127.47L9.7 78.7L127.39 127.42L37.34 37.34L127.42 127.39L78.7 9.7L127.47 127.37L127.5 0L127.52 127.37Z" stroke="#A1A6B4" stroke-opacity="1.000000" stroke-width="1.000000"/>
	</g>
</svg>
