<svg width="112.000000" height="112.000000" viewBox="0 0 112 112" fill="none" xmlns="http://www.w3.org/2000/svg" xmlns:xlink="http://www.w3.org/1999/xlink">
	<desc>
			Created with Pixso.
	</desc>
	<defs/>
	<g opacity="0.500000">
		<path id="Dawn" d="M56.01 55.94L77.43 4.26L56.03 55.95L95.59 16.4L56.04 55.96L107.73 34.56L56.05 55.98L112 56L56.05 56.01L107.73 77.43L56.04 56.03L95.59 95.59L56.03 56.04L77.43 107.73L56.01 56.05L56 112L55.98 56.05L34.56 107.73L55.96 56.04L16.4 95.59L55.95 56.03L4.26 77.43L55.94 56.01L0 56L55.94 55.98L4.26 34.56L55.95 55.96L16.4 16.4L55.96 55.95L34.56 4.26L55.98 55.94L56 0L56.01 55.94Z" stroke="#A1A6B4" stroke-opacity="1.000000" stroke-width="1.000000"/>
	</g>
</svg>
