<svg width="640.000000" height="113.000000" viewBox="0 0 640 113" fill="none" xmlns="http://www.w3.org/2000/svg" xmlns:xlink="http://www.w3.org/1999/xlink">
	<desc>
			Created with Pixso.
	</desc>
	<defs/>
	<g opacity="0.500000">
		<path id="Vector" d="M504.77 72.37C504.77 32.84 494.36 0.79 481.51 0.79C468.66 0.79 458.25 32.84 458.25 72.37C458.25 94.53 462.66 112.5 468.1 112.5C473.53 112.5 477.94 94.53 477.94 72.37C477.94 32.84 467.53 0.79 454.68 0.79C441.84 0.79 431.42 32.84 431.42 72.37C431.42 94.53 435.83 112.5 441.27 112.5C446.71 112.5 451.11 94.53 451.11 72.37C451.11 32.84 440.64 0.79 427.71 0.79C414.79 0.79 404.31 32.84 404.31 72.37C404.31 94.53 408.72 112.5 414.15 112.5C419.59 112.5 424 94.53 424 72.37C424 32.84 413.59 0.79 400.74 0.79C387.89 0.79 377.48 32.84 377.48 72.37C377.48 94.53 381.89 112.5 387.33 112.5C392.76 112.5 397.17 94.53 397.17 72.37C397.17 32.84 386.76 0.79 373.91 0.79C361.06 0.79 350.65 32.84 350.65 72.37C350.65 94.53 355.06 112.5 360.5 112.5C365.93 112.5 370.34 94.53 370.34 72.37C370.34 32.84 359.93 0.79 347.08 0.79C334.24 0.79 323.82 32.84 323.82 72.37C323.82 94.53 328.23 112.5 333.67 112.5C339.11 112.5 343.51 94.53 343.51 72.37C343.51 32.84 333.04 0.79 320.11 0.79C307.19 0.79 296.71 32.84 296.71 72.37M639.5 72.37C639.5 32.84 629.08 0.79 616.23 0.79C603.39 0.79 592.97 32.84 592.97 72.37C592.97 94.53 597.38 112.5 602.82 112.5C608.26 112.5 612.67 94.53 612.67 72.37C612.67 32.84 602.25 0.79 589.41 0.79C576.56 0.79 566.14 32.84 566.14 72.37C566.14 94.53 570.55 112.5 575.99 112.5C581.43 112.5 585.84 94.53 585.84 72.37C585.84 32.84 575.36 0.79 562.43 0.79C549.51 0.79 539.03 32.84 539.03 72.37C539.03 94.53 543.44 112.5 548.88 112.5C554.32 112.5 558.72 94.53 558.72 72.37C558.72 32.84 548.31 0.79 535.46 0.79C522.62 0.79 512.2 32.84 512.2 72.37C512.2 94.53 516.61 112.5 522.05 112.5C527.49 112.5 531.9 94.53 531.9 72.37C531.9 32.84 521.48 0.79 508.63 0.79C495.79 0.79 485.37 32.84 485.37 72.37C485.37 94.53 489.78 112.5 495.22 112.5C500.66 112.5 505.07 94.53 505.07 72.37C505.07 32.84 494.65 0.79 481.81 0.79C468.96 0.79 458.55 32.84 458.55 72.37C458.55 94.53 462.95 112.5 468.39 112.5C473.83 112.5 478.24 94.53 478.24 72.37C478.24 32.84 467.76 0.79 454.84 0.79C441.91 0.79 431.43 32.84 431.43 72.37M208.56 72.08C208.56 32.55 198.15 0.5 185.3 0.5C172.45 0.5 162.04 32.55 162.04 72.08C162.04 94.24 166.45 112.2 171.88 112.2C177.32 112.2 181.73 94.24 181.73 72.08C181.73 32.55 171.32 0.5 158.47 0.5C145.62 0.5 135.21 32.55 135.21 72.08C135.21 94.24 139.62 112.2 145.06 112.2C150.49 112.2 154.9 94.24 154.9 72.08C154.9 32.55 144.42 0.5 131.5 0.5C118.57 0.5 108.1 32.55 108.1 72.08C108.1 94.24 112.5 112.2 117.94 112.2C123.38 112.2 127.79 94.24 127.79 72.08C127.79 32.55 117.37 0.5 104.53 0.5C91.68 0.5 81.27 32.55 81.27 72.08C81.27 94.24 85.67 112.2 91.11 112.2C96.55 112.2 100.96 94.24 100.96 72.08C100.96 32.55 90.54 0.5 77.7 0.5C64.85 0.5 54.44 32.55 54.44 72.08C54.44 94.24 58.85 112.2 64.28 112.2C69.72 112.2 74.13 94.24 74.13 72.08C74.13 32.55 63.72 0.5 50.87 0.5C38.02 0.5 27.61 32.55 27.61 72.08C27.61 94.24 32.02 112.2 37.46 112.2C42.89 112.2 47.3 94.24 47.3 72.08C47.3 32.55 36.82 0.5 23.9 0.5C10.97 0.5 0.5 32.55 0.5 72.08M343.28 72.08C343.28 32.55 332.87 0.5 320.02 0.5C307.18 0.5 296.76 32.55 296.76 72.08C296.76 94.24 301.17 112.2 306.61 112.2C312.05 112.2 316.45 94.24 316.45 72.08C316.45 32.55 306.04 0.5 293.19 0.5C280.35 0.5 269.93 32.55 269.93 72.08C269.93 94.24 274.34 112.2 279.78 112.2C285.22 112.2 289.63 94.24 289.63 72.08C289.63 32.55 279.15 0.5 266.22 0.5C253.3 0.5 242.82 32.55 242.82 72.08C242.82 94.24 247.23 112.2 252.67 112.2C258.1 112.2 262.51 94.24 262.51 72.08C262.51 32.55 252.1 0.5 239.25 0.5C226.4 0.5 215.99 32.55 215.99 72.08C215.99 94.24 220.4 112.2 225.84 112.2C231.28 112.2 235.68 94.24 235.68 72.08C235.68 32.55 225.27 0.5 212.42 0.5C199.58 0.5 189.16 32.55 189.16 72.08C189.16 94.24 193.57 112.2 199.01 112.2C204.45 112.2 208.85 94.24 208.85 72.08C208.85 32.55 198.44 0.5 185.59 0.5C172.75 0.5 162.33 32.55 162.33 72.08C162.33 94.24 166.74 112.2 172.18 112.2C177.62 112.2 182.03 94.24 182.03 72.08C182.03 32.55 171.55 0.5 158.62 0.5C145.7 0.5 135.22 32.55 135.22 72.08" stroke="#A1A6B4" stroke-opacity="1.000000" stroke-width="1.000000" stroke-linecap="round"/>
	</g>
</svg>
