<svg width="2211.000000" height="11.000000" viewBox="0 0 2211 11" fill="none" xmlns="http://www.w3.org/2000/svg" xmlns:xlink="http://www.w3.org/1999/xlink">
	<desc>
			Created with Pixso.
	</desc>
	<defs/>
	<g opacity="0.600000">
		<path id="Vector" d="M0 0.5C8.24 0.5 8.24 10.5 16.48 10.5C24.73 10.5 24.73 0.5 32.97 0.5C41.21 0.5 41.21 10.5 49.44 10.5C57.68 10.5 57.68 0.5 65.91 0.5C74.15 0.5 74.15 10.5 82.38 10.5C90.62 10.5 90.62 0.5 98.86 0.5C107.11 0.5 107.11 10.5 115.35 10.5C123.6 10.5 123.6 0.5 131.84 0.5C140.08 0.5 140.08 10.5 148.33 10.5C156.57 10.5 156.57 0.5 164.82 0.5C173.06 0.5 173.06 10.5 181.3 10.5C189.55 10.5 189.55 0.5 197.79 0.5C206.04 0.5 206.04 10.5 214.26 10.5C222.51 10.5 222.51 0.5 230.73 0.5C238.97 0.5 238.97 10.5 247.2 10.5C255.44 10.5 255.44 0.5 263.69 0.5C271.93 0.5 271.93 10.5 280.17 10.5C288.42 10.5 288.42 0.5 296.66 0.5C304.91 0.5 304.91 10.5 313.15 10.5C321.39 10.5 321.39 0.5 329.64 0.5C337.88 0.5 337.88 10.5 346.13 10.5C354.37 10.5 354.37 0.5 362.61 0.5C370.86 0.5 370.86 10.5 379.08 10.5C387.33 10.5 387.33 0.5 395.55 0.5C403.8 0.5 403.8 10.5 412.02 10.5C420.26 10.5 420.26 0.5 428.51 0.5M429 0.5C437.24 0.5 437.24 10.5 445.48 10.5C453.73 10.5 453.73 0.5 461.97 0.5C470.22 0.5 470.22 10.5 478.44 10.5C486.68 10.5 486.68 0.5 494.91 0.5C503.15 0.5 503.15 10.5 511.38 10.5C519.62 10.5 519.62 0.5 527.86 0.5C536.11 0.5 536.11 10.5 544.35 10.5C552.6 10.5 552.6 0.5 560.84 0.5C569.08 0.5 569.08 10.5 577.33 10.5C585.57 10.5 585.57 0.5 593.82 0.5C602.06 0.5 602.06 10.5 610.3 10.5C618.55 10.5 618.55 0.5 626.79 0.5C635.04 0.5 635.04 10.5 643.26 10.5C651.51 10.5 651.51 0.5 659.73 0.5C667.97 0.5 667.97 10.5 676.2 10.5C684.44 10.5 684.44 0.5 692.69 0.5C700.93 0.5 700.93 10.5 709.17 10.5C717.42 10.5 717.42 0.5 725.66 0.5C733.91 0.5 733.91 10.5 742.15 10.5C750.39 10.5 750.39 0.5 758.64 0.5C766.88 0.5 766.88 10.5 775.13 10.5C783.37 10.5 783.37 0.5 791.61 0.5C799.86 0.5 799.86 10.5 808.08 10.5C816.33 10.5 816.33 0.5 824.55 0.5C832.8 0.5 832.8 10.5 841.02 10.5C849.26 10.5 849.26 0.5 857.51 0.5C865.75 0.5 865.75 10.5 874 10.5C882.24 10.5 882.24 0.5 890.48 0.5C898.73 0.5 898.73 10.5 906.97 10.5C915.22 10.5 915.22 0.5 923.44 0.5C931.68 0.5 931.68 10.5 939.91 10.5C948.15 10.5 948.15 0.5 956.38 0.5C964.62 0.5 964.62 10.5 972.86 10.5C981.11 10.5 981.11 0.5 989.35 0.5C997.6 0.5 997.6 10.5 1005.85 10.5C1014.09 10.5 1014.09 0.5 1022.33 0.5C1030.57 0.5 1030.57 10.5 1038.81 10.5C1047.06 10.5 1047.06 0.5 1055.31 0.5C1063.55 0.5 1063.55 10.5 1071.8 10.5C1080.04 10.5 1080.04 0.5 1088.27 0.5C1096.51 0.5 1096.51 10.5 1104.73 10.5C1112.98 10.5 1112.98 0.5 1121.19 0.5C1129.44 0.5 1129.44 10.5 1137.68 10.5C1145.93 10.5 1145.93 0.5 1154.18 0.5C1162.42 0.5 1162.42 10.5 1170.67 10.5C1178.91 10.5 1178.91 0.5 1187.15 0.5C1195.4 0.5 1195.4 10.5 1203.64 10.5C1211.89 10.5 1211.89 0.5 1220.13 0.5C1228.37 0.5 1228.37 10.5 1236.62 10.5C1244.86 10.5 1244.86 0.5 1253.09 0.5C1261.32 0.5 1261.32 10.5 1269.56 10.5C1277.8 10.5 1277.8 0.5 1286.02 0.5C1294.27 0.5 1294.27 10.5 1302.51 10.5C1310.76 10.5 1310.76 0.5 1319 0.5M1320 0.5C1328.24 0.5 1328.24 10.5 1336.49 10.5C1344.73 10.5 1344.73 0.5 1352.98 0.5C1361.22 0.5 1361.22 10.5 1369.44 10.5C1377.69 10.5 1377.69 0.5 1385.91 0.5C1394.16 0.5 1394.16 10.5 1402.38 10.5C1410.63 10.5 1410.63 0.5 1418.87 0.5C1427.11 0.5 1427.11 10.5 1435.36 10.5C1443.6 10.5 1443.6 0.5 1451.85 0.5C1460.09 0.5 1460.09 10.5 1468.33 10.5C1476.58 10.5 1476.58 0.5 1484.82 0.5C1493.07 0.5 1493.07 10.5 1501.31 10.5C1509.55 10.5 1509.55 0.5 1517.8 0.5C1526.04 0.5 1526.04 10.5 1534.27 10.5C1542.51 10.5 1542.51 0.5 1550.73 0.5C1558.98 0.5 1558.98 10.5 1567.2 10.5C1575.45 10.5 1575.45 0.5 1583.69 0.5C1591.93 0.5 1591.93 10.5 1600.18 10.5C1608.42 10.5 1608.42 0.5 1616.67 0.5C1624.91 0.5 1624.91 10.5 1633.15 10.5C1641.4 10.5 1641.4 0.5 1649.64 0.5C1657.89 0.5 1657.89 10.5 1666.13 10.5C1674.37 10.5 1674.37 0.5 1682.62 0.5C1690.86 0.5 1690.86 10.5 1699.09 10.5C1707.33 10.5 1707.33 0.5 1715.56 0.5C1723.8 0.5 1723.8 10.5 1732.02 10.5C1740.27 10.5 1740.27 0.5 1748.51 0.5C1756.76 0.5 1756.76 10.5 1765 10.5M1766 10.5C1774.24 10.5 1774.24 0.5 1782.49 0.5C1790.73 0.5 1790.73 10.5 1798.98 10.5C1807.22 10.5 1807.22 0.5 1815.44 0.5C1823.69 0.5 1823.69 10.5 1831.91 10.5C1840.16 10.5 1840.16 0.5 1848.38 0.5C1856.63 0.5 1856.63 10.5 1864.87 10.5C1873.11 10.5 1873.11 0.5 1881.36 0.5C1889.6 0.5 1889.6 10.5 1897.85 10.5C1906.09 10.5 1906.09 0.5 1914.33 0.5C1922.58 0.5 1922.58 10.5 1930.82 10.5C1939.07 10.5 1939.07 0.5 1947.31 0.5C1955.55 0.5 1955.55 10.5 1963.8 10.5C1972.04 10.5 1972.04 0.5 1980.27 0.5C1988.51 0.5 1988.51 10.5 1996.73 10.5C2004.98 10.5 2004.98 0.5 2013.2 0.5C2021.45 0.5 2021.45 10.5 2029.69 10.5C2037.93 10.5 2037.93 0.5 2046.18 0.5C2054.42 0.5 2054.42 10.5 2062.67 10.5C2070.9 10.5 2070.9 0.5 2079.14 0.5C2087.39 0.5 2087.39 10.5 2095.63 10.5C2103.88 10.5 2103.88 0.5 2112.12 0.5C2120.37 0.5 2120.37 10.5 2128.62 10.5C2136.86 10.5 2136.86 0.5 2145.09 0.5C2153.33 0.5 2153.33 10.5 2161.56 10.5C2169.8 10.5 2169.8 0.5 2178.02 0.5C2186.27 0.5 2186.27 10.5 2194.51 10.5C2202.76 10.5 2202.76 0.5 2211 0.5" stroke="#F5F6F7" stroke-opacity="1.000000" stroke-width="1.000000" stroke-linecap="square"/>
	</g>
</svg>
