<svg width="20.000000" height="20.000000" viewBox="0 0 20 20" fill="none" xmlns="http://www.w3.org/2000/svg" xmlns:xlink="http://www.w3.org/1999/xlink">
	<desc>
			Created with Pixso.
	</desc>
	<defs>
		<clipPath id="clip16_962">
			<rect id="Frame 158" rx="9.500000" width="19.000000" height="19.000000" transform="translate(0.500000 0.500000)" fill="white" fill-opacity="0"/>
		</clipPath>
	</defs>
	<rect id="Frame 158" rx="9.500000" width="19.000000" height="19.000000" transform="translate(0.500000 0.500000)" fill="#FFFFFF" fill-opacity="0"/>
	<g clip-path="url(#clip16_962)">
		<path id="Vector" d="M10 20C15.52 20 20 15.52 20 10C20 4.47 15.52 0 10 0C4.47 0 0 4.47 0 10C0 15.52 4.47 20 10 20Z" fill="#F0D288" fill-opacity="1.000000" fill-rule="nonzero"/>
		<path id="Vector" d="M16.93 4.54L13.22 3.17L7.89 10.86L8.42 7.37L5.52 5.68L0.17 12.11C0.42 13.38 0.91 14.57 1.58 15.62L4.77 11.77L3.59 16.29L7.23 17.62L12.64 9.84L11.45 14.29L14.4 16.01L20.05 10.31C20.05 10.25 20.05 10.18 20.05 10.12C20.05 8.78 19.8 7.5 19.33 6.32L16.04 9.65L16.93 4.54Z" fill="#121723" fill-opacity="1.000000" fill-rule="nonzero"/>
	</g>
</svg>
