<svg width="160.000000" height="160.000000" viewBox="0 0 160 160" fill="none" xmlns="http://www.w3.org/2000/svg" xmlns:xlink="http://www.w3.org/1999/xlink">
	<desc>
			Created with Pixso.
	</desc>
	<defs/>
	<path id="Vector" d="M151.97 70.38L146.22 63.49C143.68 60.45 142.45 56.52 142.79 52.57L143.59 43.53C144.24 36.12 139.36 29.35 132.12 27.62L124.84 25.89C120.78 24.93 117.3 22.31 115.25 18.67L111.45 11.93C107.64 5.17 99.3 2.43 92.23 5.62L86.15 8.35C82.24 10.11 77.75 10.11 73.84 8.35L67.74 5.61C60.68 2.43 52.35 5.16 48.53 11.9L44.75 18.58C42.69 22.23 39.21 24.84 35.13 25.8L27.91 27.5C20.65 29.21 15.75 35.98 16.4 43.41L17.2 52.51C17.55 56.45 16.32 60.37 13.79 63.41L7.99 70.39C3.36 75.95 3.37 84.03 8.01 89.59L13.77 96.5C16.31 99.54 17.55 103.47 17.2 107.42L16.4 116.54C15.75 123.95 20.63 130.72 27.87 132.44L35.16 134.18C39.22 135.14 42.69 137.75 44.74 141.38L48.52 148.06C52.34 154.82 60.69 157.54 67.76 154.34L73.83 151.59C77.75 149.81 82.24 149.81 86.17 151.57L92.25 154.31C99.31 157.49 107.64 154.76 111.46 148.01L115.25 141.31C117.3 137.68 120.77 135.07 124.83 134.1L132.12 132.37C139.36 130.64 144.24 123.87 143.59 116.46L142.79 107.42C142.45 103.47 143.68 99.54 146.22 96.5L151.97 89.61C156.62 84.04 156.62 75.95 151.97 70.38Z" fill="#F0D288" fill-opacity="1.000000" fill-rule="nonzero"/>
	<path id="new" d="M84.27 65.47L80.72 68.35L105.63 80.59L100.25 62.32L117 71.38L110.3 44.4L106.75 47.27L111.31 64.16L94.37 54.96L99.8 73.48L84.27 65.47ZM55.95 118.7L41.14 100.41L44.34 97.82L46.05 99.93Q46 98.04 46.66 96.46Q47.45 94.56 49.26 93.09Q51.65 91.16 54.14 91.03L54.14 91.03Q55.35 90.96 56.58 91.33C58.13 91.78 59.8 93.12 61.61 95.36L70.79 106.69L67.59 109.28L58.49 98.04C57.27 96.54 56.09 95.65 54.93 95.37Q54.35 95.23 53.77 95.26Q52.28 95.32 50.84 96.49Q49.53 97.55 49.04 98.9Q48.76 99.67 48.74 100.53Q48.65 103.15 51.4 106.54L59.15 116.11L55.95 118.7ZM85.53 84.6L89.38 83.89C89.71 85.57 89.75 87.17 89.5 88.68C89.03 91.55 87.59 93.95 85.19 95.89C82.71 97.91 79.92 98.85 76.83 98.73Q76.3 98.7 75.78 98.61Q71.76 97.92 68.34 93.7Q65.72 90.46 65.24 86.93Q65.1 85.9 65.14 84.84Q65.21 83.15 65.77 81.64Q66.78 78.91 69.42 76.77Q72.37 74.38 75.51 74.11Q77.28 73.96 79.1 74.48C81.78 75.23 84.21 77.06 86.41 79.95L72.06 91.57C73.59 93.4 75.38 94.43 77.43 94.66Q78.9 94.83 80.22 94.47Q81.68 94.07 82.95 93.04Q84.27 91.97 84.98 90.6L84.98 90.6Q85.45 89.7 85.66 88.66C85.92 87.28 85.88 85.93 85.53 84.6ZM80.98 79.97C79.54 78.74 77.98 78.11 76.28 78.08C74.59 77.99 73.06 78.49 71.7 79.6Q70.84 80.29 70.27 81.17Q69.51 82.34 69.26 83.84C68.96 85.54 69.26 87.17 70.14 88.75L80.98 79.97Z" fill="#292E39" fill-opacity="1.000000" fill-rule="evenodd"/>
</svg>
