<svg width="446.000000" height="11.000000" viewBox="0 0 446 11" fill="none" xmlns="http://www.w3.org/2000/svg" xmlns:xlink="http://www.w3.org/1999/xlink">
	<desc>
			Created with Pixso.
	</desc>
	<defs/>
	<path id="Vector" d="M0.5 0.5C8.74 0.5 8.74 10.5 16.98 10.5C25.23 10.5 25.23 0.5 33.47 0.5C41.71 0.5 41.71 10.5 49.94 10.5C58.18 10.5 58.18 0.5 66.41 0.5C74.65 0.5 74.65 10.5 82.88 10.5C91.12 10.5 91.12 0.5 99.36 0.5C107.61 0.5 107.61 10.5 115.85 10.5C124.1 10.5 124.1 0.5 132.34 0.5C140.58 0.5 140.58 10.5 148.83 10.5C157.07 10.5 157.07 0.5 165.32 0.5C173.56 0.5 173.56 10.5 181.8 10.5C190.05 10.5 190.05 0.5 198.29 0.5C206.54 0.5 206.54 10.5 214.76 10.5C223.01 10.5 223.01 0.5 231.23 0.5C239.47 0.5 239.47 10.5 247.7 10.5C255.94 10.5 255.94 0.5 264.19 0.5C272.43 0.5 272.43 10.5 280.67 10.5C288.92 10.5 288.92 0.5 297.16 0.5C305.41 0.5 305.41 10.5 313.65 10.5C321.89 10.5 321.89 0.5 330.14 0.5C338.38 0.5 338.38 10.5 346.63 10.5C354.87 10.5 354.87 0.5 363.11 0.5C371.36 0.5 371.36 10.5 379.58 10.5C387.83 10.5 387.83 0.5 396.05 0.5C404.3 0.5 404.3 10.5 412.52 10.5C420.76 10.5 420.76 0.5 429.01 0.5C437.25 0.5 437.25 10.5 445.5 10.5" stroke="#A1A6B4" stroke-opacity="1.000000" stroke-width="1.000000" stroke-linecap="square"/>
</svg>
