<svg width="255" height="11" viewBox="0 0 255 11" fill="none" xmlns="http://www.w3.org/2000/svg">
<path d="M0.5 0.5C8.441 0.5 8.441 10.5 16.382 10.5C24.323 10.5 24.323 0.5 32.264 0.5C40.205 0.5 40.205 10.5 48.1274 10.5C56.0686 10.5 56.0686 0.5 63.9908 0.5C71.932 0.5 71.932 10.5 79.8541 10.5C87.7953 10.5 87.7953 0.5 95.7359 0.5C103.677 0.5 103.677 10.5 111.618 10.5C119.559 10.5 119.559 0.5 127.5 0.5C135.441 0.5 135.441 10.5 143.382 10.5C151.323 10.5 151.323 0.5 159.264 0.5C167.205 0.5 167.205 10.5 175.146 10.5C183.087 10.5 183.087 0.5 191.028 0.5C198.969 0.5 198.969 10.5 206.892 10.5C214.833 10.5 214.833 0.5 222.755 0.5C230.696 0.5 230.696 10.5 238.618 10.5C246.559 10.5 246.559 0.5 254.5 0.5" stroke="#A1A6B4" stroke-miterlimit="10" stroke-linecap="square"/>
</svg>
